<svg width="53" height="53" fill="none" xmlns="http://www.w3.org/2000/svg"><g filter="url(#a)"><g clip-path="url(#b)"><path fill="#FFCA38" d="M9 7h35v35H9z"/><path d="M44 35.87V42H9v-6.53l15.558-12.964a2.66 2.66 0 0 1 3.404 0L44 35.87z" fill="#FFDC7C"/><path d="M44 14.495 28.265 28.506a2.66 2.66 0 0 1-3.533.004L9 14.558V7h35v7.495z" fill="url(#c)"/><path d="M44 14.495 28.265 28.506a2.66 2.66 0 0 1-3.533.004L9 14.558V7h35v7.495z" fill="url(#d)" fill-opacity=".5"/></g></g><defs><linearGradient id="c" x1="52.294" y1="-15.071" x2="23.266" y2="23.792" gradientUnits="userSpaceOnUse"><stop stop-color="#FFDA3E"/><stop offset="1" stop-color="#FC4714"/></linearGradient><linearGradient id="d" x1="50.82" y1="4.259" x2="26.559" y2="26.181" gradientUnits="userSpaceOnUse"><stop stop-color="#fff"/><stop offset="1" stop-color="#fff" stop-opacity="0"/></linearGradient><clipPath id="b"><rect x="9" y="7" width="35" height="35" rx="10.938" fill="#fff"/></clipPath><filter id="a" x=".25" y=".438" width="52.5" height="52.5" filterUnits="userSpaceOnUse" color-interpolation-filters="sRGB"><feFlood flood-opacity="0" result="BackgroundImageFix"/><feColorMatrix in="SourceAlpha" values="0 0 0 0 0 0 0 0 0 0 0 0 0 0 0 0 0 0 127 0" result="hardAlpha"/><feOffset dy="2.188"/><feGaussianBlur stdDeviation="4.375"/><feColorMatrix values="0 0 0 0 1 0 0 0 0 0.752941 0 0 0 0 0.227451 0 0 0 0.25 0"/><feBlend in2="BackgroundImageFix" result="effect1_dropShadow"/><feBlend in="SourceGraphic" in2="effect1_dropShadow" result="shape"/></filter></defs></svg>