<svg width="53" height="53" fill="none" xmlns="http://www.w3.org/2000/svg"><g filter="url(#a)" fill-rule="evenodd" clip-rule="evenodd"><path d="M9.13 17.562h.003l25.723 24.163c1.256-.174 2.268-.456 3.173-.917a10.937 10.937 0 0 0 4.78-4.78C44 33.688 44 30.626 44 24.5s0-9.188-1.192-11.528a10.937 10.937 0 0 0-4.78-4.78C35.689 7 32.626 7 26.5 7c-6.126 0-9.189 0-11.528 1.192a10.938 10.938 0 0 0-4.78 4.78c-.623 1.222-.92 2.64-1.062 4.59z" fill="#FF8E3B"/><path d="M9.13 17.562h.003l25.723 24.163c1.256-.174 2.268-.456 3.173-.917a10.937 10.937 0 0 0 4.78-4.78C44 33.688 44 30.626 44 24.5s0-9.188-1.192-11.528a10.937 10.937 0 0 0-4.78-4.78C35.689 7 32.626 7 26.5 7c-6.126 0-9.189 0-11.528 1.192a10.938 10.938 0 0 0-4.78 4.78c-.623 1.222-.92 2.64-1.062 4.59z" fill="url(#b)"/><path d="M9.13 17.551C9 19.337 9 21.567 9 24.5c0 6.125 0 9.188 1.192 11.528a10.938 10.938 0 0 0 4.78 4.78C17.312 42 20.374 42 26.5 42c3.758 0 6.363 0 8.356-.275l5.806-20.665a1.289 1.289 0 0 0-.895-1.584l-2.346-.65a1.207 1.207 0 0 0-1.488.855c-.104.39.01.799.193 1.16.28.553.366 1.208.194 1.855a2.593 2.593 0 0 1-3.177 1.842 2.607 2.607 0 0 1-1.834-3.19 2.595 2.595 0 0 1 1.08-1.503c.343-.227.652-.53.758-.928a1.24 1.24 0 0 0-.863-1.515l-2.627-.729a1.1 1.1 0 0 0-1.356.78c-.095.356.008.729.181 1.053.301.564.398 1.24.22 1.907a2.593 2.593 0 0 1-3.177 1.842 2.607 2.607 0 0 1-1.834-3.191 2.595 2.595 0 0 1 1.128-1.533c.318-.2.599-.477.696-.841.16-.6-.192-1.218-.788-1.383l-2.734-.758a1.139 1.139 0 0 0-1.403.807c-.098.369.009.754.186 1.092.294.56.386 1.228.21 1.888a2.593 2.593 0 0 1-3.177 1.842 2.607 2.607 0 0 1-1.834-3.191 2.596 2.596 0 0 1 1.11-1.522c.328-.21.619-.496.72-.872a1.17 1.17 0 0 0-.816-1.43l-2.561-.71c-.63-.175-1.281.2-1.45.833-.102.38.01.78.19 1.13.286.556.374 1.217.2 1.87a2.593 2.593 0 0 1-4.237 1.265z" fill="#F9DB60"/></g><defs><linearGradient id="b" x1="50.181" y1="-15.903" x2="23.24" y2="24.403" gradientUnits="userSpaceOnUse"><stop offset=".078" stop-color="#fff" stop-opacity=".7"/><stop offset="1" stop-color="#fff" stop-opacity="0"/></linearGradient><filter id="a" x=".25" y=".438" width="52.501" height="52.5" filterUnits="userSpaceOnUse" color-interpolation-filters="sRGB"><feFlood flood-opacity="0" result="BackgroundImageFix"/><feColorMatrix in="SourceAlpha" values="0 0 0 0 0 0 0 0 0 0 0 0 0 0 0 0 0 0 127 0" result="hardAlpha"/><feOffset dy="2.188"/><feGaussianBlur stdDeviation="4.375"/><feColorMatrix values="0 0 0 0 0.775 0 0 0 0 0.479185 0 0 0 0 0.03875 0 0 0 0.25 0"/><feBlend in2="BackgroundImageFix" result="effect1_dropShadow"/><feBlend in="SourceGraphic" in2="effect1_dropShadow" result="shape"/></filter></defs></svg>