<svg width="53" height="53" fill="none" xmlns="http://www.w3.org/2000/svg"><g filter="url(#a)"><path d="M9 24.5c0-6.126 0-9.188 1.192-11.528a10.938 10.938 0 0 1 4.78-4.78C17.312 7 20.374 7 26.5 7s9.188 0 11.528 1.192a10.938 10.938 0 0 1 4.78 4.78C44 15.312 44 18.374 44 24.5s0 9.188-1.192 11.528a10.938 10.938 0 0 1-4.78 4.78C35.688 42 32.626 42 26.5 42s-9.188 0-11.528-1.192a10.938 10.938 0 0 1-4.78-4.78C9 33.688 9 30.626 9 24.5z" fill="url(#b)"/></g><circle opacity=".6" cx="23.583" cy="21.583" r="1.458" fill="#fff"/><circle cx="20.667" cy="24.5" stroke="#fff" stroke-width="1.637" r="7.292"/><circle cx="36.709" cy="24.5" fill="#0F0" r="2.917"/><defs><linearGradient id="b" x1="5.42" y1="45.977" x2="44" y2="7" gradientUnits="userSpaceOnUse"><stop/><stop offset="1" stop-color="#31404E"/></linearGradient><filter id="a" x=".25" y=".438" width="52.5" height="52.5" filterUnits="userSpaceOnUse" color-interpolation-filters="sRGB"><feFlood flood-opacity="0" result="BackgroundImageFix"/><feColorMatrix in="SourceAlpha" values="0 0 0 0 0 0 0 0 0 0 0 0 0 0 0 0 0 0 127 0" result="hardAlpha"/><feOffset dy="2.188"/><feGaussianBlur stdDeviation="4.375"/><feColorMatrix values="0 0 0 0 0.00483871 0 0 0 0 0.15 0 0 0 0 0.00483871 0 0 0 0.35 0"/><feBlend in2="BackgroundImageFix" result="effect1_dropShadow"/><feBlend in="SourceGraphic" in2="effect1_dropShadow" result="shape"/></filter></defs></svg>