<svg width="53" height="53" fill="none" xmlns="http://www.w3.org/2000/svg"><g filter="url(#a)"><path d="M9 24.5c0-6.126 0-9.188 1.192-11.528a10.938 10.938 0 0 1 4.78-4.78C17.312 7 20.374 7 26.5 7s9.188 0 11.528 1.192a10.938 10.938 0 0 1 4.78 4.78C44 15.312 44 18.374 44 24.5s0 9.188-1.192 11.528a10.938 10.938 0 0 1-4.78 4.78C35.688 42 32.626 42 26.5 42s-9.188 0-11.528-1.192a10.938 10.938 0 0 1-4.78-4.78C9 33.688 9 30.626 9 24.5z" fill="#F33"/></g><path d="M24.929 32H14.807v-2.849a73.343 73.343 0 0 0 3.28-2.568c.907-.748 1.633-1.432 2.18-2.05.547-.619.942-1.202 1.187-1.748a4.131 4.131 0 0 0 .367-1.706c0-.719-.216-1.28-.648-1.683-.417-.417-1.007-.626-1.77-.626-.762 0-1.496.166-2.2.497a8.54 8.54 0 0 0-1.965 1.316v-2.72a7.996 7.996 0 0 1 1.964-1.1c.72-.288 1.597-.432 2.633-.432.763 0 1.46.108 2.094.324a4.342 4.342 0 0 1 1.619.907c.46.402.812.899 1.057 1.489.245.575.367 1.23.367 1.964 0 .72-.144 1.403-.432 2.05-.273.647-.698 1.302-1.273 1.964-.561.662-1.28 1.36-2.158 2.093A75.255 75.255 0 0 1 18 29.518h6.928V32zm13.484-4.424a4.42 4.42 0 0 1-.41 1.92 4.125 4.125 0 0 1-1.165 1.468c-.49.403-1.087.712-1.791.928-.706.216-1.49.324-2.353.324-1.05 0-1.942-.123-2.676-.367-.72-.26-1.31-.554-1.77-.885v-2.611c.23.172.482.345.755.518.288.172.598.33.928.474.331.13.698.245 1.101.346.418.086.87.13 1.36.13.993 0 1.726-.21 2.201-.627.475-.431.712-1.014.712-1.748 0-1.482-.956-2.223-2.87-2.223h-1.834v-2.46h1.942c.69 0 1.245-.173 1.662-.518.431-.36.647-.878.647-1.554 0-.619-.208-1.1-.626-1.446-.417-.345-1.028-.518-1.834-.518-.82 0-1.532.151-2.137.453a9.154 9.154 0 0 0-1.662 1.015v-2.612a6.148 6.148 0 0 1 1.705-.885c.662-.244 1.526-.367 2.59-.367.763 0 1.453.101 2.072.303.619.201 1.144.482 1.576.841.431.36.762.799.992 1.317a3.95 3.95 0 0 1 .346 1.662c0 .474-.087.906-.26 1.295a3.499 3.499 0 0 1-.647 1.036 3.255 3.255 0 0 1-.928.712 4.155 4.155 0 0 1-1.079.367c.46.072.9.208 1.317.41a3.586 3.586 0 0 1 1.856 1.878c.187.416.28.891.28 1.424z" fill="#fff"/><path opacity=".2" d="M26.5 42c5.982 0 8.972 0 11.275-1.124a11.088 11.088 0 0 0 5.101-5.101C44 33.472 44 30.482 44 24.5H9c0 5.982 0 8.972 1.124 11.275a11.088 11.088 0 0 0 5.101 5.101C17.529 42 20.518 42 26.5 42z" fill="url(#b)" fill-opacity=".6"/><defs><linearGradient id="b" x1="26.5" y1="24.5" x2="26.5" y2="42" gradientUnits="userSpaceOnUse"><stop/><stop offset="1" stop-opacity="0"/></linearGradient><filter id="a" x=".25" y=".438" width="52.5" height="52.5" filterUnits="userSpaceOnUse" color-interpolation-filters="sRGB"><feFlood flood-opacity="0" result="BackgroundImageFix"/><feColorMatrix in="SourceAlpha" values="0 0 0 0 0 0 0 0 0 0 0 0 0 0 0 0 0 0 127 0" result="hardAlpha"/><feOffset dy="2.188"/><feGaussianBlur stdDeviation="4.375"/><feColorMatrix values="0 0 0 0 0.6 0 0 0 0 0.12 0 0 0 0 0.12 0 0 0 0.32 0"/><feBlend in2="BackgroundImageFix" result="effect1_dropShadow"/><feBlend in="SourceGraphic" in2="effect1_dropShadow" result="shape"/></filter></defs></svg>