<svg width="53" height="53" fill="none" xmlns="http://www.w3.org/2000/svg"><g filter="url(#a)"><path d="M9 24.5c0-6.125 0-9.188 1.203-11.484a10.272 10.272 0 0 1 4.813-4.813C17.312 7 20.375 7 26.5 7s9.188 0 11.484 1.203a11.353 11.353 0 0 1 4.813 4.813C44 15.312 44 18.375 44 24.5s0 9.188-1.203 11.484a11.353 11.353 0 0 1-4.813 4.813C35.687 42 32.625 42 26.5 42s-9.188 0-11.484-1.203a11.353 11.353 0 0 1-4.813-4.813C9 33.687 9 30.625 9 24.5z" fill="#145BC7"/></g><path d="M10.203 13.016C9 15.312 9 18.375 9 24.5s0 9.188 1.203 11.484a11.352 11.352 0 0 0 4.813 4.813C17.312 42 20.375 42 26.5 42c2.812 0 4.978 0 6.721-.116l.06-.103 6.563-23.625c.11-.547-.219-1.203-.766-1.312l-26.25-7.219a.301.301 0 0 1-.046.034 10.229 10.229 0 0 0-2.579 3.357z" fill="#367AFE"/><path d="M9.024 20.125C9 21.387 9 22.829 9 24.5c0 6.125 0 9.188 1.203 11.484a11.352 11.352 0 0 0 4.813 4.813C17.312 42 20.375 42 26.5 42h1.094V21.219c0-.657-.437-1.094-1.093-1.094H9.024z" fill="#8AB2FF"/><path d="M9 24.5c0-6.125 0-9.188 1.203-11.484a10.272 10.272 0 0 1 4.813-4.813C17.312 7 20.375 7 26.5 7s9.188 0 11.484 1.203a11.353 11.353 0 0 1 4.813 4.813C44 15.312 44 18.375 44 24.5s0 9.188-1.203 11.484a11.353 11.353 0 0 1-4.813 4.813C35.687 42 32.625 42 26.5 42s-9.188 0-11.484-1.203a11.353 11.353 0 0 1-4.813-4.813C9 33.687 9 30.625 9 24.5z" fill="url(#b)"/><defs><linearGradient id="b" x1="37.688" y1="8.486" x2="15.104" y2="40.811" gradientUnits="userSpaceOnUse"><stop stop-color="#fff" stop-opacity=".338"/><stop offset=".535" stop-color="#fff" stop-opacity="0"/><stop offset="1" stop-color="#fff" stop-opacity="0"/></linearGradient><filter id="a" x=".25" y=".438" width="52.5" height="52.5" filterUnits="userSpaceOnUse" color-interpolation-filters="sRGB"><feFlood flood-opacity="0" result="BackgroundImageFix"/><feColorMatrix in="SourceAlpha" values="0 0 0 0 0 0 0 0 0 0 0 0 0 0 0 0 0 0 127 0" result="hardAlpha"/><feOffset dy="2.188"/><feGaussianBlur stdDeviation="4.375"/><feColorMatrix values="0 0 0 0 0 0 0 0 0 0.466667 0 0 0 0 1 0 0 0 0.25 0"/><feBlend in2="BackgroundImageFix" result="effect1_dropShadow"/><feBlend in="SourceGraphic" in2="effect1_dropShadow" result="shape"/></filter></defs></svg>