<svg width="53" height="53" fill="none" xmlns="http://www.w3.org/2000/svg"><g filter="url(#a)"><path d="M9 24.5c0-6.126 0-9.188 1.192-11.528a10.938 10.938 0 0 1 4.78-4.78C17.312 7 20.374 7 26.5 7s9.188 0 11.528 1.192a10.938 10.938 0 0 1 4.78 4.78C44 15.312 44 18.374 44 24.5s0 9.188-1.192 11.528a10.938 10.938 0 0 1-4.78 4.78C35.688 42 32.626 42 26.5 42s-9.188 0-11.528-1.192a10.938 10.938 0 0 1-4.78-4.78C9 33.688 9 30.626 9 24.5z" fill="#39DBDB"/></g><path d="M40.306 24.112a1.166 1.166 0 0 0-.54-.647L19.642 12.187a1.185 1.185 0 0 0-1.766 1.035v4.244l22.43 6.646z" fill="#FAFFFE"/><path d="M17.876 35.778a1.186 1.186 0 0 0 1.766 1.034l20.124-11.277c.255-.141.447-.372.54-.648l-22.43 6.647v4.244z" fill="#F3F3F3" fill-opacity=".68"/><path d="m40.309 24.114-23.954-7.098a1.186 1.186 0 0 0-1.397 1.67l2.92 5.815h22.497c0-.132-.023-.263-.066-.387z" fill="#FAFFFE" fill-opacity=".75"/><path d="m17.877 24.5-2.92 5.816a1.186 1.186 0 0 0 1.397 1.67v-.001l23.954-7.098c.043-.124.065-.255.066-.387H17.877z" fill="#FAFFFE"/><defs><filter id="a" x=".25" y=".438" width="52.5" height="52.5" filterUnits="userSpaceOnUse" color-interpolation-filters="sRGB"><feFlood flood-opacity="0" result="BackgroundImageFix"/><feColorMatrix in="SourceAlpha" values="0 0 0 0 0 0 0 0 0 0 0 0 0 0 0 0 0 0 127 0" result="hardAlpha"/><feOffset dy="2.188"/><feGaussianBlur stdDeviation="4.375"/><feColorMatrix values="0 0 0 0 0.223529 0 0 0 0 0.858824 0 0 0 0 0.858824 0 0 0 0.25 0"/><feBlend in2="BackgroundImageFix" result="effect1_dropShadow"/><feBlend in="SourceGraphic" in2="effect1_dropShadow" result="shape"/></filter></defs></svg>