<svg width="53" height="53" fill="none" xmlns="http://www.w3.org/2000/svg"><g filter="url(#a)"><rect x="9" y="7" width="35" height="35" rx="10.938" fill="url(#b)"/></g><path d="M9.426 33.75c-.35-1.717-.413-3.909-.424-7.033.726-1.201 1.705-2.445 2.905-3.675.745-.826 1.317-2.02 1.89-3.217.213-.444.426-.888.648-1.313a12.586 12.586 0 0 1 5.8-5.542c3.078-1.442 6.44-1.491 9.156-.634.212.067.418.135.622.203.982.325 1.903.631 3.162.652 5.334-.358 9.512.878 10.484 2.896.03.063.054.126.073.192.018.135.034.273.05.414-.176 5.174-27.291 18.195-34.366 17.058z" fill="#012B5B"/><path d="M9.702 34.827c-.463-1.456-.62-3.249-.675-5.773 2.149-3.394 7.214-7.524 13.846-10.63 9.324-4.368 18.426-5.16 20.825-2.465.156 1.045.232 2.261.268 3.73-1.392 3.934-6.611 9.476-14.124 12.995-8.207 3.844-16.58 4.071-20.14 2.143z" fill="#1884FF"/><g filter="url(#c)"><path fill-rule="evenodd" clip-rule="evenodd" d="M29.597 31.19c4.692-2.199 7.879-5.262 7.118-6.844-.761-1.58-5.183-1.08-9.875 1.118-4.693 2.198-7.88 5.262-7.119 6.843.762 1.58 5.183 1.08 9.876-1.118z" fill="#fff"/></g><defs><filter id="a" x=".25" y=".438" width="52.5" height="52.5" filterUnits="userSpaceOnUse" color-interpolation-filters="sRGB"><feFlood flood-opacity="0" result="BackgroundImageFix"/><feColorMatrix in="SourceAlpha" values="0 0 0 0 0 0 0 0 0 0 0 0 0 0 0 0 0 0 127 0" result="hardAlpha"/><feOffset dy="2.188"/><feGaussianBlur stdDeviation="4.375"/><feColorMatrix values="0 0 0 0 0.313726 0 0 0 0 0.443137 0 0 0 0 0.964706 0 0 0 0.35 0"/><feBlend in2="BackgroundImageFix" result="effect1_dropShadow"/><feBlend in="SourceGraphic" in2="effect1_dropShadow" result="shape"/></filter><filter id="c" x="11.214" y="15.028" width="34.009" height="26.597" filterUnits="userSpaceOnUse" color-interpolation-filters="sRGB"><feFlood flood-opacity="0" result="BackgroundImageFix"/><feColorMatrix in="SourceAlpha" values="0 0 0 0 0 0 0 0 0 0 0 0 0 0 0 0 0 0 127 0" result="hardAlpha"/><feOffset/><feGaussianBlur stdDeviation="4.198"/><feColorMatrix values="0 0 0 0 1 0 0 0 0 1 0 0 0 0 1 0 0 0 0.6 0"/><feBlend in2="BackgroundImageFix" result="effect1_dropShadow"/><feBlend in="SourceGraphic" in2="effect1_dropShadow" result="shape"/></filter><linearGradient id="b" x1="23.766" y1="19.578" x2="38.531" y2="40.906" gradientUnits="userSpaceOnUse"><stop offset=".021" stop-color="#0151AE"/><stop offset="1" stop-color="#036DE6"/></linearGradient></defs></svg>