<svg width="350" height="180" viewBox="0 0 350 180" fill="none" xmlns="http://www.w3.org/2000/svg"><path d="M0 90C0 52.5027 0 33.754 9.54915 20.6107C12.6331 16.366 16.366 12.6331 20.6107 9.54915C33.754 0 52.5027 0 90 0H260C297.497 0 316.246 0 329.389 9.54915C333.634 12.6331 337.367 16.366 340.451 20.6107C350 33.754 350 52.5027 350 90C350 127.497 350 146.246 340.451 159.389C337.367 163.634 333.634 167.367 329.389 170.451C316.246 180 297.497 180 260 180H90C52.5027 180 33.754 180 20.6107 170.451C16.366 167.367 12.6331 163.634 9.54915 159.389C0 146.246 0 127.497 0 90Z" fill="url(#paint0_linear)"/><path d="M150.674 126.051V29H134.981V126.051H150.674Z" fill="white"/><path fill-rule="evenodd" clip-rule="evenodd" d="M76.9194 123.792C81.055 126.298 85.8263 127.553 90.658 127.407C94.7937 127.44 98.8967 126.673 102.742 125.147C106.564 123.697 109.997 121.376 112.77 118.369C115.788 115.098 118.093 111.234 119.538 107.022C122.882 96.5388 122.882 85.2727 119.538 74.7892C118.08 70.5948 115.795 66.7362 112.82 63.4422C110.046 60.4367 106.613 58.1165 102.792 56.6642C99.0267 55.1703 95.0086 54.4201 90.9588 54.455C85.9682 54.2795 81.0353 55.5712 76.7692 58.1705C72.8625 60.6742 69.6539 64.129 67.4432 68.212L66.3901 55.7605H52V150H67.6436V114.102C69.8825 118.054 73.0706 121.385 76.9194 123.792ZM94.2851 113.035C91.9364 114.033 89.3969 114.5 86.8473 114.403C84.2373 114.41 81.65 113.916 79.226 112.947C76.8381 112.054 74.716 110.568 73.0588 108.629C71.2365 106.477 69.8564 103.986 68.9975 101.299C67.9777 97.9309 67.4869 94.4246 67.5433 90.9058C67.5142 87.504 68.0048 84.1177 68.9975 80.8643C69.869 78.1463 71.2849 75.6349 73.1589 73.4837C74.8261 71.5536 76.921 70.0406 79.2761 69.0654C81.7312 68.0826 84.3537 67.588 86.9976 67.6094C89.5323 67.5294 92.0531 68.015 94.3772 69.031C96.7013 70.047 98.7705 71.568 100.435 73.4837C103.796 78.727 105.582 84.8262 105.582 91.0564C105.582 97.2866 103.796 103.386 100.435 108.629C98.7335 110.533 96.6338 112.037 94.2851 113.035Z" fill="white"/><path d="M204.527 123.641C200.113 126.332 194.998 127.643 189.836 127.407C183.948 127.655 178.195 125.603 173.791 121.683C171.577 119.409 169.877 116.686 168.804 113.698C167.731 110.71 167.312 107.526 167.573 104.361V55.7605H183.368V104.01C183.171 105.556 183.377 107.127 183.966 108.569C184.554 110.012 185.505 111.278 186.727 112.244C189.23 113.717 192.099 114.448 195 114.353C198.808 114.507 202.576 113.528 205.83 111.541C208.736 109.596 211.169 107.022 212.95 104.01V55.7605H228.494V126.051H214.204L213.251 114.554H212.95C210.961 118.252 208.062 121.38 204.527 123.641Z" fill="white"/><path d="M259.829 126.503C262.964 127.138 266.157 127.441 269.356 127.407C272.892 127.419 276.421 127.066 279.885 126.352C283.142 125.704 286.252 124.462 289.061 122.687C291.775 120.999 294.018 118.65 295.579 115.859C297.291 112.581 298.121 108.912 297.986 105.215C298.117 101.728 297.34 98.2676 295.729 95.1736C294.272 92.6489 292.246 90.4998 289.813 88.8976C287.371 87.2868 284.676 86.0986 281.84 85.383C278.932 84.6132 276.075 83.9606 273.267 83.425L267.5 82.4208C265.793 82.1397 264.115 81.7027 262.486 81.1154C261.204 80.663 260.051 79.9048 259.127 78.9062C258.219 77.8494 257.752 76.483 257.824 75.0905C257.763 73.8075 258.064 72.5333 258.694 71.4143C259.324 70.2953 260.256 69.3768 261.384 68.7643C264.895 67.2036 268.73 66.5146 272.565 66.7561C276.948 66.657 281.323 67.1983 285.551 68.3628C288.504 69.2442 291.321 70.528 293.924 72.1784V59.6265C291.283 58.1139 288.449 56.9656 285.501 56.2125C281.067 55.0533 276.494 54.5126 271.913 54.6058C264.411 54.1 256.954 56.0949 250.704 60.2793C247.124 63.2525 244.648 67.3459 243.675 71.8999C242.702 76.4538 243.288 81.2032 245.339 85.383C246.677 87.7395 248.528 89.7643 250.754 91.3075C253.021 92.8978 255.526 94.118 258.175 94.9224C260.904 95.7794 263.684 96.4669 266.498 96.981C268.654 97.4328 270.76 97.8346 272.765 98.1358C274.603 98.4151 276.403 98.9036 278.13 99.5919C279.547 100.121 280.807 101.002 281.791 102.152C282.764 103.43 283.245 105.017 283.144 106.621C283.2 107.926 282.909 109.222 282.302 110.377C281.694 111.533 280.791 112.506 279.684 113.198C276.323 114.903 272.563 115.666 268.804 115.407C265.76 115.444 262.72 115.174 259.729 114.604C255.213 113.669 250.89 111.971 246.943 109.583C245.635 108.819 244.394 107.945 243.233 106.972V119.424C244.388 120.297 245.594 121.101 246.843 121.834C248.578 122.862 250.408 123.72 252.308 124.394C254.76 125.281 257.274 125.986 259.829 126.503Z" fill="white"/><defs><linearGradient id="paint0_linear" x1="7.84754" y1="21.2108" x2="343.078" y2="155.851" gradientUnits="userSpaceOnUse"><stop offset="0.0364583" stop-color="#48CCE0"/><stop offset="0.328125" stop-color="#505ADD"/><stop offset="0.640625" stop-color="#BE40C0"/><stop offset="0.958333" stop-color="#FBA82B"/></linearGradient></defs></svg>
