<svg width="430" height="180" viewBox="0 0 430 180" fill="none" xmlns="http://www.w3.org/2000/svg"><path d="M0 90C0 52.5027 0 33.754 9.54915 20.6107C12.6331 16.366 16.366 12.6331 20.6107 9.54915C33.754 0 52.5027 0 90 0H340C377.497 0 396.246 0 409.389 9.54915C413.634 12.6331 417.367 16.366 420.451 20.6107C430 33.754 430 52.5027 430 90C430 127.497 430 146.246 420.451 159.389C417.367 163.634 413.634 167.367 409.389 170.451C396.246 180 377.497 180 340 180H90C52.5027 180 33.754 180 20.6107 170.451C16.366 167.367 12.6331 163.634 9.54915 159.389C0 146.246 0 127.497 0 90Z" fill="url(#paint0_linear)"/><path fill-rule="evenodd" clip-rule="evenodd" d="M302.993 90.001C303.084 95.2282 302.221 100.429 300.445 105.352C298.856 109.528 296.444 113.349 293.349 116.592C290.345 119.658 286.717 122.055 282.706 123.624C274.543 126.65 265.577 126.79 257.322 124.02C253.623 122.723 250.224 120.702 247.328 118.078C244.383 115.327 241.963 112.073 240.183 108.471C238.224 104.372 237.007 99.9642 236.585 95.448H226.592V124.664H210.902V55.3381H226.492V82.8208H236.735C237.28 78.5321 238.547 74.3643 240.483 70.4907C242.257 67.0445 244.683 63.9681 247.628 61.4289C250.556 58.943 253.953 57.0579 257.622 55.8828C261.437 54.6097 265.439 53.9738 269.464 54.0011C273.985 53.966 278.473 54.7549 282.706 56.3285C286.721 57.8432 290.354 60.2093 293.349 63.2611C296.455 66.5146 298.868 70.3542 300.445 74.5513C302.237 79.5043 303.101 84.7402 302.993 90.001ZM269.464 113.176C271.843 113.226 274.204 112.751 276.374 111.783C278.543 110.814 280.468 109.379 282.006 107.58C285.24 102.304 286.95 96.2486 286.95 90.0752C286.95 83.9019 285.24 77.847 282.006 72.5705C280.47 70.7654 278.548 69.3222 276.378 68.3458C274.209 67.3693 271.847 66.8841 269.464 66.9254C267.115 66.8758 264.784 67.3534 262.647 68.3223C260.509 69.2913 258.621 70.7267 257.122 72.521C253.916 77.8161 252.222 83.8752 252.222 90.0505C252.222 96.2257 253.916 102.285 257.122 107.58C258.626 109.365 260.516 110.791 262.653 111.751C264.79 112.712 267.119 113.182 269.464 113.126V113.176Z" fill="white"/><path d="M139.749 82.2762C139.601 88.1962 138.949 94.0933 137.8 99.9047C137.176 102.863 135.877 105.641 134.003 108.026C133.29 108.867 132.392 109.536 131.379 109.982C130.366 110.428 129.264 110.64 128.156 110.601C127.474 110.648 126.79 110.648 126.108 110.601V125.011H130.305C134.785 125.241 139.2 123.87 142.747 121.148C146.124 118.162 148.598 114.304 149.892 110.006C151.719 104.219 152.827 98.2328 153.191 92.1799C153.74 85.1978 154.24 77.0767 154.24 67.9158H174.577V124.565H190.217V55.2392H140.249C140.249 65.9846 140.099 74.997 139.749 82.2762Z" fill="white"/><path d="M115.362 55.3383H56V124.664H71.5901V67.9159H99.7223V124.664H115.362V55.3383Z" fill="white"/><path d="M337.123 123.476C341.936 125.164 347.009 126.002 352.114 125.951C356.553 126.07 360.984 125.519 365.256 124.317C368.323 123.378 371.26 122.064 374 120.405V107.679C371.127 109.32 368.077 110.632 364.906 111.591C361.077 112.697 357.1 113.215 353.113 113.126C338.972 113.126 331.876 105.451 331.876 90.0012C331.876 74.5514 339.072 66.8761 353.513 66.8761C357.36 66.8224 361.195 67.3058 364.906 68.3121C368.118 69.271 371.179 70.6712 374 72.4717V59.6464C371.354 57.8278 368.413 56.4713 365.305 55.6354C361.169 54.5255 356.898 53.9923 352.613 54.0509C347.377 53.9819 342.169 54.8198 337.223 56.5268C332.903 58.03 328.964 60.4462 325.68 63.6079C322.446 66.7794 319.956 70.617 318.385 74.8486C314.986 84.6694 314.986 95.3329 318.385 105.154C319.956 109.385 322.446 113.223 325.68 116.394C328.935 119.544 332.839 121.959 337.123 123.476Z" fill="white"/><defs><linearGradient id="paint0_linear" x1="9.64126" y1="21.2108" x2="394.28" y2="211.006" gradientUnits="userSpaceOnUse"><stop offset="0.0364583" stop-color="#48CCE0"/><stop offset="0.328125" stop-color="#505ADD"/><stop offset="0.640625" stop-color="#BE40C0"/><stop offset="0.958333" stop-color="#FBA82B"/></linearGradient></defs></svg>
